<svg width="41" height="57" viewBox="0 0 41 57" fill="none" xmlns="http://www.w3.org/2000/svg">
<path d="M35.8509 15.2009C35.7588 14.9856 30.867 15.5292 30.3543 14.9748C29.8426 14.4193 30.574 13.5749 31.2751 12.9516C32.0264 12.2763 33.167 10.6641 32.8039 10.5333C32.063 11.3965 31.6529 11.8644 30.7927 12.641C29.9902 13.3655 29.0275 14.3633 28.0345 14.9168C27.1095 15.4338 26.4304 15.9627 25.2888 15.7897C24.1483 15.6177 23.578 15.2313 24.4967 14.1205C25.4154 13.0096 28.5734 10.3544 28.5734 10.3544C28.5179 9.8983 26.8762 11.0259 26.0098 11.6511C25.5849 11.9607 24.572 12.5869 24.5647 12.2861C24.5574 11.9814 25.0984 11.0848 25.565 10.4871C26.5434 9.23376 28.2061 7.13397 30.0446 5.25635C29.8154 5.02632 26.5612 8.15044 26.5612 7.91549C26.5612 7.68054 26.67 6.79285 26.827 5.97889C26.9735 5.23276 27.684 2.99338 27.7216 2.23152C27.4339 2.34653 26.4754 5.86781 26.0244 7.00421C25.5755 8.13275 23.0548 12.06 22.7273 12.4749C22.3087 13.0028 21.8148 12.7078 21.6579 11.9548C21.5616 11.4938 20.7559 8.96637 21.1975 8.14159C21.638 7.31583 22.6007 7.00224 23.149 5.18361C23.6973 3.36497 23.2076 0.226101 22.8602 0C22.8685 1.06759 22.8277 1.67216 22.6896 2.73287C22.5902 3.49375 22.5986 3.94595 22.3443 4.66751C22.135 5.27896 21.9645 5.61516 21.6003 6.14896C21.1975 6.54807 21.0144 6.8135 20.5623 6.72011C20.2955 6.66112 20.1354 6.55004 19.9889 6.32001C19.6007 5.78425 17.9202 1.82453 17.689 1.65054C17.689 1.93562 19.0168 6.30231 19.134 7.45838C19.2345 8.38735 19.0671 9.0922 18.9718 10.0222L18.6098 11.6157C18.3524 11.7022 17.7528 10.6464 17.2307 9.90813C16.7765 9.26227 16.5317 8.88576 16.1393 8.19763C16.2554 7.70217 16.3412 7.12021 16.2847 6.31509C16.2293 5.50998 17.4902 4.59378 17.4431 4.32246C17.4117 4.14158 16.1215 5.16591 16.0744 4.97717C16.0127 4.73435 15.9363 4.48564 15.8442 4.23202C15.2562 2.61196 13.7379 1.3566 13.1655 1.01549C13.4899 1.77931 14.5038 2.68273 14.9025 3.99019C15.3001 5.29666 15.4759 6.61984 15.117 6.88723C14.6566 7.23227 13.4982 6.77614 12.5387 6.22269C11.1627 5.42347 10.7337 4.3372 10.3037 4.33327C9.87464 4.32835 11.2611 5.7174 11.4547 6.5058C11.6483 7.29421 8.61586 6.78892 8.34694 6.75353C7.88025 6.70045 7.78085 6.9295 8.15231 7.0455C8.71003 7.2195 9.72083 7.38956 10.2775 7.45838C12.1181 7.68743 13.7274 7.64417 15.2206 8.99488C16.4605 10.1214 16.9021 11.1625 17.1689 12.8091C17.3123 13.6929 16.0409 13.3802 13.695 12.0325C12.8484 11.5803 11.7895 10.7319 11.6462 9.2662C11.4683 8.87003 11.2454 10.3721 11.5195 10.9482C11.6922 11.3149 9.4697 10.5294 8.62527 10.6995C8.13034 10.8125 11.101 11.0956 12.4707 12.1957C13.2021 12.7826 15.5994 14.437 16.5118 15.2323C16.7692 15.4564 16.6321 16.0954 16.2418 16.2104C15.7584 16.354 14.891 16.2832 13.9848 16.1701C12.3493 15.9647 11.6472 15.2087 10.899 14.5805C10.1498 13.9524 9.17253 12.3412 9.17253 12.3412C9.17253 12.8524 9.24682 13.6201 9.58689 14.151C9.88615 14.614 10.0808 14.8705 10.447 15.2864C10.447 15.2864 7.43659 14.5884 6.63402 14.5884C6.75017 14.8745 8.61272 15.2589 9.49586 15.7356C10.5454 16.2979 14.103 18.0025 13.9921 18.2876C13.7546 18.8765 10.7651 18.6858 9.73234 18.7978C8.67445 18.9158 7.01176 19.0878 6.98979 19.4122C6.96886 19.7356 8.59074 19.3817 9.52829 19.4643C11.3291 19.6236 12.5764 19.6364 14.1261 20.0325C15.2164 20.3117 16.5285 21.0883 16.7713 21.572C17.012 22.0389 17.2819 22.4833 17.2307 23.9136L17.1323 27.4506C5.41709 27.5922 0 28.4995 0 28.4995C0 28.4995 5.41709 29.4078 17.1323 29.5494L17.2307 33.0864C17.2819 34.5167 17.012 34.9611 16.7713 35.427C16.5285 35.9117 15.2164 36.6883 14.1261 36.9675C12.5764 37.3627 11.3291 37.3754 9.52829 37.5347C8.59074 37.6182 6.96886 37.2634 6.98979 37.5878C7.01176 37.9122 8.67445 38.0832 9.73234 38.2022C10.7651 38.3133 13.7546 38.1235 13.9921 38.7124C14.103 38.9965 10.5454 40.7011 9.49586 41.2634C8.61272 41.7411 6.75017 42.1245 6.63402 42.4106C7.43659 42.4106 10.447 41.7136 10.447 41.7136C10.0808 42.1295 9.88615 42.386 9.58689 42.849C9.24682 43.3789 9.17253 44.1476 9.17253 44.6588C9.17253 44.6588 10.1498 43.0476 10.899 42.4185C11.6472 41.7903 12.3493 41.0353 13.9848 40.8299C14.891 40.7158 15.7584 40.646 16.2418 40.7886C16.6321 40.9036 16.7692 41.5426 16.5118 41.7667C15.5994 42.562 13.2021 44.2165 12.4707 44.8043C11.101 45.9034 8.13034 46.1865 8.62527 46.2995C9.4697 46.4696 11.6922 45.6851 11.5195 46.0508C11.2454 46.6269 11.4683 48.129 11.6462 47.7328C11.7895 46.2671 12.8484 45.4197 13.695 44.9665C16.0409 43.6197 17.3123 43.3062 17.1689 44.1909C16.9021 45.8365 16.4605 46.8785 15.2206 48.0041C13.7274 49.3548 12.1181 49.3126 10.2775 49.5406C9.72083 49.6095 8.71003 49.7795 8.15231 49.9545C7.78085 50.0705 7.88025 50.2996 8.34694 50.2465C8.61586 50.2111 11.6483 49.7058 11.4547 50.4932C11.2611 51.2816 9.87464 52.6707 10.3037 52.6667C10.7337 52.6618 11.1627 51.5765 12.5387 50.7773C13.4982 50.2239 14.6566 49.7677 15.117 50.1118C15.4759 50.3792 15.3001 51.7024 14.9025 53.0098C14.5038 54.3173 13.4899 55.2197 13.1655 55.9835C13.7379 55.6424 15.2562 54.3871 15.8442 52.767C15.9363 52.5134 16.0127 52.2647 16.0744 52.0219C16.1215 51.8341 17.4117 52.8584 17.4431 52.6775C17.4902 52.4062 16.2293 51.49 16.2847 50.6839C16.3412 49.8788 16.2554 49.2968 16.1393 48.8014C16.5317 48.1142 16.7765 47.7377 17.2307 47.0919C17.7528 46.3526 18.3524 45.2978 18.6098 45.3843L18.9718 46.9769C19.0671 47.9068 19.2345 48.6126 19.134 49.5406C19.0168 50.6967 17.689 55.0634 17.689 55.3485C17.9202 55.1755 19.6007 51.2148 19.9889 50.679C20.1354 50.449 20.2955 50.3379 20.5623 50.2799C21.0144 50.1855 21.1975 50.4509 21.6003 50.851C21.9645 51.3848 22.135 51.721 22.3443 52.3325C22.5986 53.054 22.5902 53.5062 22.6896 54.2661C22.8277 55.3269 22.8685 55.9314 22.8602 57C23.2076 56.7739 23.6973 53.634 23.149 51.8164C22.6007 49.9978 21.638 49.6842 21.1975 48.8584C20.7559 48.0326 21.5616 45.5052 21.6579 45.0442C21.8148 44.2922 22.3087 43.9972 22.7273 44.5251C23.0548 44.939 25.5755 48.8673 26.0244 49.9948C26.4754 51.1322 27.4339 54.6535 27.7216 54.7675C27.684 54.0056 26.9735 51.7663 26.827 51.0201C26.67 50.2071 26.5612 49.3195 26.5612 49.0835C26.5612 48.8486 29.8154 51.9737 30.0446 51.7436C28.2061 49.866 26.5434 47.7653 25.565 46.5119C25.0984 45.9142 24.5574 44.7699 24.5647 44.4662C24.572 44.1653 25.5849 45.0383 26.0098 45.3479C26.8762 45.9741 28.5179 47.1017 28.5734 46.6456C28.5734 46.6456 25.4154 43.9894 24.4967 42.8785C23.578 41.7677 24.1483 41.3823 25.2888 41.2093C26.4304 41.0363 27.1095 41.5652 28.0345 42.0832C29.0275 42.6367 29.9902 43.6335 30.7927 44.359C31.6529 45.1346 32.063 45.6035 32.8039 46.4657C33.167 46.3359 32.0264 44.7227 31.2751 44.0474C30.574 43.4251 29.8426 42.5797 30.3543 42.0252C30.867 41.4698 35.7588 42.0144 35.8509 41.7982C35.9618 41.519 31.7669 40.6696 29.6888 40.6539C27.6118 40.6392 24.9634 38.8549 25.3882 38.1894C25.812 37.5249 27.8524 37.9505 31.3682 39.3002C31.9103 39.3474 30.3522 38.3496 29.9012 38.0174C31.317 37.9702 33.6043 36.9753 33.5416 36.6873C31.317 37.3528 30.0697 37.4 28.4039 36.9252C26.738 36.4504 23.8385 35.5352 23.8385 35.2314C23.8385 34.3791 23.8061 33.2594 23.9191 31.721L24.0384 29.5396C35.2566 29.3715 40.4476 28.4995 40.4476 28.4995C40.4476 28.4995 35.2566 27.6285 24.0384 27.4604L23.9191 25.2781C23.8061 23.7406 23.8385 22.6209 23.8385 21.7686C23.8385 21.4648 26.738 20.5496 28.4039 20.0748C30.0697 19.6 31.317 19.6472 33.5416 20.3117C33.6043 20.0237 31.317 19.0298 29.9012 18.9816C30.3522 18.6494 31.9103 17.6526 31.3682 17.6998C27.8524 19.0485 25.812 19.4751 25.3882 18.8096C24.9634 18.1451 27.6118 16.3608 29.6888 16.3451C31.7669 16.3294 35.9618 15.48 35.8509 15.2009Z" fill="#00447C"/>
</svg>
